<svg width="40" height="40" viewBox="0 0 40 40" fill="none" xmlns="http://www.w3.org/2000/svg">
<path d="M38.8998 19.8988C38.9523 30.3331 30.5336 38.8376 20.0952 38.8934C9.65685 38.9493 1.15281 30.5354 1.10023 20.1011C1.04765 9.6668 9.46644 1.1623 19.9048 1.10643C30.3431 1.05057 38.8472 9.46449 38.8998 19.8988Z" stroke="#333333" stroke-width="2"/>
<path d="M9.48606 20.3925V20.3298C9.39467 20.2364 9.32212 20.1253 9.2726 20.0028C9.22309 19.8803 9.19759 19.7489 9.19759 19.6161C9.19759 19.4834 9.22309 19.3519 9.2726 19.2295C9.32212 19.107 9.39467 18.9958 9.48606 18.9025L13.7087 14.5265L9.48606 10.1427C9.35623 10.0637 9.24563 9.95505 9.16275 9.82509C9.07986 9.69513 9.02689 9.5473 9.00788 9.39293C8.98888 9.23856 9.00435 9.08175 9.05311 8.93451C9.10186 8.78727 9.18262 8.65351 9.28918 8.54347C9.39574 8.43344 9.52528 8.35006 9.66787 8.29971C9.81047 8.24936 9.96233 8.23339 10.1118 8.25301C10.2613 8.27264 10.4045 8.32734 10.5303 8.41292C10.6562 8.49851 10.7614 8.61271 10.8379 8.74678L15.053 13.1149L15.1517 13.0051L19.2681 8.73893C19.3583 8.64522 19.4656 8.57078 19.5837 8.51986C19.7018 8.46894 19.8285 8.44255 19.9565 8.44218C20.0845 8.44182 20.2113 8.46749 20.3297 8.51774C20.4481 8.56798 20.5557 8.64181 20.6465 8.73501C20.7373 8.82821 20.8094 8.93896 20.8587 9.06094C20.908 9.18291 20.9335 9.31371 20.9339 9.44588C20.9342 9.57806 20.9094 9.709 20.8607 9.83126C20.8121 9.95351 20.7406 10.0647 20.6503 10.1584L18.0833 12.8169L16.5643 14.4324L16.4732 14.5422L19.9364 18.1575L29.0501 8.74678C29.1403 8.65306 29.2476 8.57862 29.3657 8.5277C29.4838 8.47678 29.6105 8.45039 29.7385 8.45003C29.8665 8.44966 29.9933 8.47534 30.1117 8.52558C30.2301 8.57582 30.3378 8.64965 30.4285 8.74286C30.5193 8.83606 30.5914 8.94681 30.6407 9.06878C30.69 9.19075 30.7155 9.32155 30.7159 9.45373C30.7162 9.5859 30.6914 9.71685 30.6427 9.8391C30.5941 9.96135 30.5226 10.0725 30.4323 10.1662L21.3186 19.5769L30.288 28.8778C30.454 29.0727 30.5417 29.3257 30.5333 29.5851C30.5249 29.8445 30.421 30.0908 30.2428 30.2738C30.0645 30.4568 29.8254 30.5628 29.5742 30.57C29.3229 30.5773 29.0784 30.4854 28.8906 30.3129L19.9212 21.0042L10.9291 30.3286C10.8388 30.4223 10.7315 30.4968 10.6134 30.5477C10.4953 30.5986 10.3686 30.625 10.2406 30.6254C10.1126 30.6257 9.98581 30.6 9.86742 30.5498C9.74903 30.4996 9.64138 30.4257 9.55062 30.3325C9.45986 30.2393 9.38777 30.1286 9.33846 30.0066C9.28915 29.8846 9.26359 29.7538 9.26323 29.6216C9.26288 29.4895 9.28774 29.3585 9.3364 29.2363C9.38506 29.114 9.45656 29.0029 9.54682 28.9092L18.5466 19.5769L15.0454 15.9459L10.8303 20.3298C10.6579 20.5067 10.4279 20.611 10.1851 20.6226C9.94228 20.6342 9.70396 20.5522 9.51644 20.3925H9.48606Z" fill="#333333"/>
<path d="M38.8998 19.8988C38.9523 30.3331 30.5336 38.8376 20.0952 38.8934C9.65685 38.9493 1.15281 30.5354 1.10023 20.1011C1.04765 9.6668 9.46644 1.1623 19.9048 1.10643C30.3431 1.05057 38.8472 9.46449 38.8998 19.8988Z" stroke="#333333" stroke-width="2"/>
<path d="M9.48606 20.3925V20.3298C9.39467 20.2364 9.32212 20.1253 9.2726 20.0028C9.22309 19.8803 9.19759 19.7489 9.19759 19.6161C9.19759 19.4834 9.22309 19.3519 9.2726 19.2295C9.32212 19.107 9.39467 18.9958 9.48606 18.9025L13.7087 14.5265L9.48606 10.1427C9.35623 10.0637 9.24563 9.95505 9.16275 9.82509C9.07986 9.69513 9.02689 9.5473 9.00788 9.39293C8.98888 9.23856 9.00435 9.08175 9.05311 8.93451C9.10186 8.78727 9.18262 8.65351 9.28918 8.54347C9.39574 8.43344 9.52528 8.35006 9.66787 8.29971C9.81047 8.24936 9.96233 8.23339 10.1118 8.25301C10.2613 8.27264 10.4045 8.32734 10.5303 8.41292C10.6562 8.49851 10.7614 8.61271 10.8379 8.74678L15.053 13.1149L15.1517 13.0051L19.2681 8.73893C19.3583 8.64522 19.4656 8.57078 19.5837 8.51986C19.7018 8.46894 19.8285 8.44255 19.9565 8.44218C20.0845 8.44182 20.2113 8.46749 20.3297 8.51774C20.4481 8.56798 20.5557 8.64181 20.6465 8.73501C20.7373 8.82821 20.8094 8.93896 20.8587 9.06094C20.908 9.18291 20.9335 9.31371 20.9339 9.44588C20.9342 9.57806 20.9094 9.709 20.8607 9.83126C20.8121 9.95351 20.7406 10.0647 20.6503 10.1584L18.0833 12.8169L16.5643 14.4324L16.4732 14.5422L19.9364 18.1575L29.0501 8.74678C29.1403 8.65306 29.2476 8.57862 29.3657 8.5277C29.4838 8.47678 29.6105 8.45039 29.7385 8.45003C29.8665 8.44966 29.9933 8.47534 30.1117 8.52558C30.2301 8.57582 30.3378 8.64965 30.4285 8.74286C30.5193 8.83606 30.5914 8.94681 30.6407 9.06878C30.69 9.19075 30.7155 9.32155 30.7159 9.45373C30.7162 9.5859 30.6914 9.71685 30.6427 9.8391C30.5941 9.96135 30.5226 10.0725 30.4323 10.1662L21.3186 19.5769L30.288 28.8778C30.454 29.0727 30.5417 29.3257 30.5333 29.5851C30.5249 29.8445 30.421 30.0908 30.2428 30.2738C30.0645 30.4568 29.8254 30.5628 29.5742 30.57C29.3229 30.5773 29.0784 30.4854 28.8906 30.3129L19.9212 21.0042L10.9291 30.3286C10.8388 30.4223 10.7315 30.4968 10.6134 30.5477C10.4953 30.5986 10.3686 30.625 10.2406 30.6254C10.1126 30.6257 9.98581 30.6 9.86742 30.5498C9.74903 30.4996 9.64138 30.4257 9.55062 30.3325C9.45986 30.2393 9.38777 30.1286 9.33846 30.0066C9.28915 29.8846 9.26359 29.7538 9.26323 29.6216C9.26288 29.4895 9.28774 29.3585 9.3364 29.2363C9.38506 29.114 9.45656 29.0029 9.54682 28.9092L18.5466 19.5769L15.0454 15.9459L10.8303 20.3298C10.6579 20.5067 10.4279 20.611 10.1851 20.6226C9.94228 20.6342 9.70396 20.5522 9.51644 20.3925H9.48606Z" fill="#333333"/>
</svg>